{"title":"The Big 4 - Live from Sofia Bulgaria - Disc 2 [BDRip-720p-Mkv-En","uid":6026587,"size":4690589725,"categoryP":"video","categoryS":"hd___movies","magnet":"?xt=urn:btih:20680cd58d0d3d04cd3840441dbc0356136f13af&amp;dn=The+Big+4+-+Live+from+Sofia+Bulgaria+-+Disc+2+%5BBDRip-720p-Mkv-En&amp;tr=udp%3A%2F%2Ftracker.openbittorrent.com%3A80&amp;tr=udp%3A%2F%2Fopen.demonii.com%3A1337&amp;tr=udp%3A%2F%2Ftracker.coppersurfer.tk%3A6969&amp;tr=udp%3A%2F%2Fexodus.desync.com%3A6969","seeders":4,"leechers":0,"uploader":"maxneb","files":1,"time":1291949065,"description":"The Big 4 - Live from Sofia Bulgaria - Disc 2 [BDRip-720p-Mkv-Eng-Ac3][Nautilus-BT]\n\n\n\n\nGeneral\nComplete name                    : F:\\The Big 4 - Live from Sofia Bulgaria - Disc 2 [BDRip-720p-Ac3][RiP By MaX].mkv\nFormat                           : Matroska\nFile size                        : 4.37 GiB\nDuration                         : 2h 12mn\nOverall bit rate                 : 4 738 Kbps\nEncoded date                     : UTC 2010-12-02 01:18:38\nWriting application              : mkvmerge v4.4.0 ('Die Wiederkehr') built on Oct 31 2010 21:52:48\nWriting library                  : libebml v1.0.0 + libmatroska v1.0.0\n\nVideo\nID                               : 1\nFormat                           : AVC\nFormat/Info                      : Advanced Video Codec\nFormat profile                   : &lt;a class=&quot;__cf_email__&quot; href=&quot;/cdn-cgi/l/email-protection&quot; data-cfemail=&quot;d69ebfb1be969ae2f8e7&quot;&gt;[email&amp;#160;protected]&lt;/a&gt;&lt;script cf-hash='f9e31' type=&quot;text/javascript&quot;&gt;\n/* &lt;![CDATA[ */!function(){try{var t=&quot;currentScript&quot;in document?document.currentScript:function(){for(var t=document.getElementsByTagName(&quot;script&quot;),e=t.length;e--;)if(t[e].getAttribute(&quot;cf-hash&quot;))return t[e]}();if(t&amp;&amp;t.previousSibling){var e,r,n,i,c=t.previousSibling,a=c.getAttribute(&quot;data-cfemail&quot;);if(a){for(e=&quot;&quot;,r=parseInt(a.substr(0,2),16),n=2;a.length-n;n+=2)i=parseInt(a.substr(n,2),16)^r,e+=String.fromCharCode(i);e=document.createTextNode(e),c.parentNode.replaceChild(e,c)}}}catch(u){}}();/* ]]&gt; */&lt;/script&gt;\nFormat settings, CABAC           : Yes\nFormat settings, ReFrames        : 5 frames\nMuxing mode                      : Container profile=&lt;a class=&quot;__cf_email__&quot; href=&quot;/cdn-cgi/l/email-protection&quot; data-cfemail=&quot;4613282d2829312806726877&quot;&gt;[email&amp;#160;protected]&lt;/a&gt;&lt;script cf-hash='f9e31' type=&quot;text/javascript&quot;&gt;\n/* &lt;![CDATA[ */!function(){try{var t=&quot;currentScript&quot;in document?document.currentScript:function(){for(var t=document.getElementsByTagName(&quot;script&quot;),e=t.length;e--;)if(t[e].getAttribute(&quot;cf-hash&quot;))return t[e]}();if(t&amp;&amp;t.previousSibling){var e,r,n,i,c=t.previousSibling,a=c.getAttribute(&quot;data-cfemail&quot;);if(a){for(e=&quot;&quot;,r=parseInt(a.substr(0,2),16),n=2;a.length-n;n+=2)i=parseInt(a.substr(n,2),16)^r,e+=String.fromCharCode(i);e=document.createTextNode(e),c.parentNode.replaceChild(e,c)}}}catch(u){}}();/* ]]&gt; */&lt;/script&gt;\nCodec ID                         : V_MPEG4/ISO/AVC\nDuration                         : 2h 12mn\nBit rate                         : 4 101 Kbps\nWidth                            : 1 280 pixels\nHeight                           : 714 pixels\nDisplay aspect ratio             : 16:9\nFrame rate                       : 23.976 fps\nColor space                      : YUV\nChroma subsampling               : 4:2:0\nBit depth                        : 8 bits\nScan type                        : Progressive\nBits/(Pixel*Frame)               : 0.187\nStream size                      : 3.69 GiB (85%)\nTitle                            : The Big 4 - Live from Sofia Bulgaria - Disc 2 [BDRip 720p][RiP By MaX]\nWriting library                  : x264 core 110 r1804 e89c4cf\nEncoding settings                : cabac=1 / ref=5 / deblock=1:1:0 / analyse=0x3:0x133 / me=hex / subme=7 / psy=1 / psy_rd=1.00:0.00 / mixed_ref=1 / me_range=16 / chroma_me=1 / trellis=1 / 8x8dct=1 / cqm=0 / deadzone=21,11 / fast_pskip=0 / chroma_qp_offset=-2 / threads=6 / sliced_threads=0 / nr=0 / decimate=1 / interlaced=0 / constrained_intra=0 / bframes=3 / b_pyramid=2 / b_adapt=2 / b_bias=0 / direct=3 / weightb=1 / open_gop=0 / weightp=1 / keyint=240 / keyint_min=23 / scenecut=40 / intra_refresh=0 / rc_lookahead=40 / rc=2pass / mbtree=1 / bitrate=4101 / ratetol=1.0 / qcomp=0.60 / qpmin=10 / qpmax=51 / qpstep=4 / cplxblur=20.0 / qblur=0.5 / ip_ratio=1.40 / aq=1:1.00\nLanguage                         : Italian\n\nAudio\nID                               : 2\nFormat                           : AC-3\nFormat/Info                      : Audio Coding 3\nMode extension                   : CM (complete main)\nCodec ID                         : A_AC3\nDuration                         : 2h 12mn\nBit rate mode                    : Constant\nBit rate                         : 640 Kbps\nChannel(s)                       : 6 channels\nChannel positions                : Front: L C R, Side: L R, LFE\nSampling rate                    : 48.0 KHz\nBit depth                        : 16 bits\nVideo delay                      : 4ms\nStream size                      : 604 MiB (14%)\nTitle                            : Eng Ac3 5.1\n\nMenu\n00:00:00.000                     : :01\n00:00:30.130                     : :02\n00:02:38.558                     : :03\n00:08:48.161                     : :04\n00:13:22.235                     : :05\n00:17:15.001                     : :06\n00:23:55.134                     : :07\n00:31:27.352                     : :08\n00:38:15.193                     : :09\n00:44:48.352                     : :10\n00:52:08.926                     : :11\n00:58:23.834                     : :12\n01:06:12.202                     : :13\n01:14:39.241                     : :14\n01:22:51.366                     : :15\n01:30:49.044                     : :16\n01:36:46.868                     : :17\n01:45:06.333                     : :18\n01:53:45.519                     : :19\n01:58:24.164                     : :20\n02:06:11.464                     : :21\n02:08:51.057                     : :22\n\n\n &lt;a href=&quot;\nhttp://en.wikipedia.org/wiki/The_Big_4_Live_from_Sofia,_Bulgaria&quot; rel=&quot;nofollow&quot; target=&quot;_NEW&quot;&gt;\nhttp://en.wikipedia.org/wiki/The_Big_4_Live_from_Sofia,_Bulgaria&lt;/a&gt;","torrent":{"xt":"urn:btih:20680cd58d0d3d04cd3840441dbc0356136f13af","amp;dn":"The+Big+4+-+Live+from+Sofia+Bulgaria+-+Disc+2+%5BBDRip-720p-Mkv-En","amp;tr":["udp%3A%2F%2Ftracker.openbittorrent.com%3A80","udp%3A%2F%2Fopen.demonii.com%3A1337","udp%3A%2F%2Ftracker.coppersurfer.tk%3A6969","udp%3A%2F%2Fexodus.desync.com%3A6969"],"infoHash":"20680cd58d0d3d04cd3840441dbc0356136f13af","infoHashBuffer":{"type":"Buffer","data":[32,104,12,213,141,13,61,4,205,56,64,68,29,188,3,86,19,111,19,175]},"announce":[],"urlList":[]}}